<svg xmlns="http://www.w3.org/2000/svg" viewBox="0 0 145 145"><defs><style>.cls-1{fill:none;}.cls-2,.cls-3,.cls-4,.cls-5{fill:#fff;}.cls-3,.cls-4,.cls-5{stroke:#fff;stroke-miterlimit:10;}.cls-3{stroke-width:0.5px;}.cls-5{stroke-width:0.75px;}</style></defs><g id="圖層_2" data-name="圖層 2"><g id="圖層_3" data-name="圖層 3"><rect class="cls-1" width="145" height="145"/><path class="cls-2" d="M139.36,49.72a1.74,1.74,0,0,0-.79-.34,7.36,7.36,0,0,1-2-.64,2.86,2.86,0,0,1-.57-.46,4.69,4.69,0,0,0-.88-.71c-.14-.09-.24-.15-.23-.57,0-1.37,0-2.84-.07-4.36a6.2,6.2,0,0,0-2.74-5,8.75,8.75,0,0,0-8-1.18A21.77,21.77,0,0,0,120.3,38a59,59,0,0,0-12.12,9c-1.1,1-1.58,1.27-2.4,1a2.17,2.17,0,0,0-.82-.12h-.17a14.12,14.12,0,0,0-9.32,1.51,1,1,0,0,1-.34.1,12,12,0,0,1-3.61-.94l-.18-.08a.49.49,0,0,1,0-.11A15.53,15.53,0,0,0,91,44a5.61,5.61,0,0,0-2.2-3.33,4.63,4.63,0,0,0-6.21.1c-.33.26-.5.62-1,1-1.07.83-2.61.13-4-.54a26,26,0,0,0-6.06-2.33c-.39-.08-.86-.29-1.12-1.21a1.91,1.91,0,0,1-.09-.59,1.47,1.47,0,0,1,.63-.21h.12a3.69,3.69,0,0,0,.46-.08l.23-.06a7,7,0,0,0,2.84-1.3,2.19,2.19,0,0,0,.86-2.09,11.89,11.89,0,0,1,.08-3.41c.06-.54.12-1.07.16-1.6A17.26,17.26,0,0,1,76,26.49a4.23,4.23,0,0,0,2.1-.61,5.49,5.49,0,0,0,2.53-3.48,3.79,3.79,0,0,0-.42-2.7,2.74,2.74,0,0,0-3.35-1.22,2.7,2.7,0,0,0-.38.17,4.36,4.36,0,0,1,.51-.44l.47-.39a2.12,2.12,0,0,0,.64-3c-.34-.7-.88-2.19-1.19-2.92a5.09,5.09,0,0,0-3.24-2.4c-1.35-.42-4.85-1.16-9-2.37a17.63,17.63,0,0,0-11.94.26L50.19,4a2,2,0,0,0-1.8-2.74,2,2,0,0,0-1.48.52,2.06,2.06,0,0,0-.16,2.9,2,2,0,0,0,.71.5l.33,3.93-3.14-2a2,2,0,0,0-.52-1.39,2.05,2.05,0,1,0-1.66,3.41l1.46,3.4-4-.93a2,2,0,0,0-.34-.53,2,2,0,0,0-1.41-.68,2.05,2.05,0,1,0,.66,3.95l2.63,2.59a18.12,18.12,0,0,0-.89,1.89,13.35,13.35,0,0,0-1.19,6.83,5.05,5.05,0,0,0,1.68,3.62c.58.5,1.18,1,1.78,1.45l.77.61a12.91,12.91,0,0,1,1.8,1.62A3.73,3.73,0,0,0,44,32.36a4.63,4.63,0,0,0-5.2,2.94A8.68,8.68,0,0,0,38.14,38a11.81,11.81,0,0,0-1.81-.34c-4.92-.52-11.24,1.83-12.23,7.15a9,9,0,0,0,.91,6.2,21.39,21.39,0,0,0-3.39,1.56c-6.9,4.14-10.49,9.91-10.51,18.16,0,8.64,6.22,17.12,13,22.34,4.39,3.38,10.68,6.34,16.28,6.9,6.46.64,11.93.63,17.67-1.54a7.82,7.82,0,0,1,3.17-.22,15.41,15.41,0,0,0,2.45,0,21.63,21.63,0,0,0,2.16-.37,13.47,13.47,0,0,1,3.06-.38,15.43,15.43,0,0,1,3.54.74,12,12,0,0,0,5.95.65,16.55,16.55,0,0,0,2.83-1A13.68,13.68,0,0,1,83.72,97a14,14,0,0,1,4.08,0l1.16.13a20.39,20.39,0,0,0,6.61,0l1.35-.28c.87-.17,1.76-.34,2.63-.58a9.14,9.14,0,0,0,1.77-.79,6.94,6.94,0,0,1,1.67-.72h.28l.25-.15c4.77-3,7.65-8.46,10.55-13.13,2.49-4,4.6-11.25,4.6-11.25A33.85,33.85,0,0,0,121,75.66c.6,1.18,2.51,5.19,3.72,7.53.17.32.3.69.47,1,.35.69.74,1.48.51,1.91,0,.08-.28.16-.52.23l-.33.11c-.36.12-.76.22-1.16.32-1.37.35-2.92.74-3.8,2.15-1.1,1.78-.13,4.71.54,6a6.82,6.82,0,0,0,2,2.13,8.42,8.42,0,0,1,1.14,1,4.19,4.19,0,0,1,1,2.84c0,.4-.07.85-.13,1.32a7.6,7.6,0,0,0,.11,3.51,6.4,6.4,0,0,0,2.2,3l2,1.63a6,6,0,0,0,2.22,1.29,3.07,3.07,0,0,0,.79.11,2.6,2.6,0,0,0,2.24-1.16,1.54,1.54,0,0,0,.26-.78,1.88,1.88,0,0,0-1.17-1.7l-.23-.14c-.6-.42,0-2.13.26-2.69,1.49-3.91,1.46-8.23,1.44-12q0-3.32,0-6.63c0-2.87.06-5.73.1-8.6s.09-5.89.14-8.84l.15-7.38,0-.91c0-.63,0-1.26.05-1.89a5.07,5.07,0,0,0,0-.68,2.28,2.28,0,0,1,0-.26l.19-.08a3,3,0,0,0,.91-.52,2.09,2.09,0,0,0,.65-1.32,1,1,0,0,1,0-.22,1.69,1.69,0,0,1,.13-.31,3.1,3.1,0,0,0,.31-.79,3.54,3.54,0,0,0,0-1.06,1.9,1.9,0,0,1,0-.47.37.37,0,0,0,0-.09l.4-.13a2.85,2.85,0,0,0,1.95-1.36,2,2,0,0,0,.25-.75A1.44,1.44,0,0,0,139.36,49.72ZM43.14,36.58l-1.59.53a1.75,1.75,0,0,1,.29-1.32,1.43,1.43,0,0,1,1-.64H43a.65.65,0,0,1,.7.55C43.79,36.27,43.71,36.4,43.14,36.58Z"/><path d="M67.62,56.56l1.14-.27a8,8,0,0,1,6.18.62,7.21,7.21,0,0,1,2.94,8.89,3.57,3.57,0,0,1-.83,1.3c-1.17,1.13-2.91,1.22-4.06,2.42a3.21,3.21,0,0,0-1,2,37,37,0,0,0,.43,4,34.77,34.77,0,0,1,0,4.45c-.21,2.91-.84,6-2.76,8.24a18.2,18.2,0,0,1-7.55,5.15,15,15,0,0,1-1.79.6c-.85.24-1.72.44-2.59.62a45.41,45.41,0,0,1-4.9.67A46.88,46.88,0,0,1,42.66,95a31.13,31.13,0,0,1-5.4-1.17,3.87,3.87,0,0,0-3.41.91c-.79.77-.48,1.53.49,1.84a42.17,42.17,0,0,0,11.87,1.71,54.36,54.36,0,0,0,11.94-1,31.45,31.45,0,0,0,10.58-4,17.8,17.8,0,0,0,7.15-7.66,23.21,23.21,0,0,0,1.45-9.81,35.38,35.38,0,0,0-.44-4.36,1.52,1.52,0,0,1,.16-1.13,10.78,10.78,0,0,1,1-.74A8.2,8.2,0,0,0,79,68.7a9,9,0,0,0,2.46-8.08,9.63,9.63,0,0,0-6.16-6.87,11,11,0,0,0-5.89-.24,24.68,24.68,0,0,0-2.67.84,2.42,2.42,0,0,1,1.07,0,7.34,7.34,0,0,0-.93-.9,33.47,33.47,0,0,0-9.5-6,31.53,31.53,0,0,0-11.77-2.36l-1.38,0a.54.54,0,0,1,.28.08c-.35-.28,0,.14-.14-.08-.36-.58-.57-1.27-1-1.87a9.6,9.6,0,0,0-3.45-3.22,10.15,10.15,0,0,0-3.75-1.14c-4.43-.47-9.63,1.83-10.51,6.62a7.28,7.28,0,0,0,2,6.4A12.16,12.16,0,0,0,24.05,53C17.21,56.18,12.46,64.49,12.91,72s5.31,14.33,11,19a33.93,33.93,0,0,0,5.91,3.86,33.06,33.06,0,0,0,4.49,1.84,3.84,3.84,0,0,0,3.41-.92c.8-.77.48-1.51-.49-1.83A30.89,30.89,0,0,1,23,83.61c-3.53-4.49-6-10.39-5.14-16.2a18.5,18.5,0,0,1,4-8.42,31,31,0,0,1,3.15-3.44,11.66,11.66,0,0,1,4.39-3.12,22.91,22.91,0,0,1-1-4.15,5.91,5.91,0,0,1,4.38-6.38,8,8,0,0,1,8.56,3.49,6.36,6.36,0,0,0,2.45,2.23,37,37,0,0,0,4,2.31c2.24.87,2.78.43,5.13,1a5,5,0,0,1,1.6.57,1.58,1.58,0,0,1,.77,1.43c-.24,1.72-3.8,1.07-4.74.54.55.31,1,.9,1.55,1.25a11.15,11.15,0,0,0,1.87,1A17.68,17.68,0,0,0,58,56.75,27.1,27.1,0,0,0,67.62,56.56Z"/><path d="M25.35,63.81c-1.75,4.27-1.57,7.17,0,10s4.13,3.2,6.23.59a20.58,20.58,0,0,1,6-4.93c.89-.5,1.81-1,2.69-1.49a4.63,4.63,0,0,0,0-8.15C34.76,56.52,27.21,59.12,25.35,63.81Z"/><path d="M66.57,81.58A10.92,10.92,0,0,0,59,67.09a4.62,4.62,0,0,0-5.88,4,6.94,6.94,0,0,0,.49,2.74c1.1,3.31,2,6.6,1.74,10.18-.23,2.92,1.77,4.38,4.62,3.59A9.51,9.51,0,0,0,66.57,81.58Z"/><path d="M44.09,77.31c-1.3-.29-2.58-.66-3.89-.84-1-.12-1.3.39-1.12,1.26.73,3.44,5.64,5.31,8.51,3.25.74-.53.81-1.08,0-1.66C46.48,78.57,45.28,78,44.09,77.31Z"/><circle class="cls-2" cx="38.06" cy="64.29" r="2.06"/><circle class="cls-2" cx="57.71" cy="71.81" r="2.06"/><path d="M76,64.69a5.07,5.07,0,0,0-1-5.37,5.2,5.2,0,0,0-5.58-1.55c-.77.2-1.08.46-.52,1.27a35.6,35.6,0,0,1,2.37,3.81c.64,1.18,1.12,2.44,1.64,3.68.33.79.84,1,1.42.36A26.37,26.37,0,0,0,76,64.69Z"/><path d="M37.5,44.11C33.79,43,29.65,46,30.39,50c.2,1.14.46,1.23,1.59.72,2.22-1,4.42-2,6.69-2.91,1.92-.74,2.07-1.14.52-2.53A15,15,0,0,0,37.5,44.11Z"/><path d="M42.86,78.86a20.93,20.93,0,0,1-2.14,3.43,3.3,3.3,0,0,1-2.94.83c-1-.1-2.46-.27-3.12-1.12l-.23-.31a1,1,0,0,0-.21-.2.53.53,0,0,0-.62-.06.65.65,0,0,0-.2.53,2.59,2.59,0,0,0,.76,1.68,4.36,4.36,0,0,0,4.51,1.25,9.57,9.57,0,0,0,1.9-.69c.17-.07.66-.23.76-.39,0,0,1.31-2.31,2.6-4.61A7,7,0,0,1,42.86,78.86Z"/><path d="M46.4,87.78a1.05,1.05,0,0,0-.4-.07,3.19,3.19,0,0,1-1.69-.38,7.61,7.61,0,0,1-1-1.23,3.51,3.51,0,0,1-.88-3.22,22.09,22.09,0,0,1,2-3.59A7.39,7.39,0,0,1,43.29,79c-1.28,2.08-2.48,4-2.48,4-.31.5.14,2.1.27,2.61.32,1.34,1.21,3.24,2.74,3.45a4.81,4.81,0,0,0,1.56,0,1.92,1.92,0,0,0,.73-.32,1.36,1.36,0,0,0,.48-.58.47.47,0,0,0,0-.17A.37.37,0,0,0,46.4,87.78Z"/><path d="M43.74,86.78c.47.17.53.75.2,1.2a4.46,4.46,0,0,1-1.29,1.12,5.73,5.73,0,0,1-2.77.88,3.53,3.53,0,0,1-2.76-.6,6.22,6.22,0,0,1-1.55-2.44c-.43-1.08-.75-3.39.66-3.83s.54,1.53.63,2.24c.16,1.13.42,2.2,1.5,2.67a3.45,3.45,0,0,0,3.47-.49C42.34,87.17,43.07,86.54,43.74,86.78Z"/><path d="M89,96.41a19.18,19.18,0,0,0,6.28,0c1.31-.29,2.65-.5,3.94-.85,1-.27,2.77-1.54,3.7-1.54,4.57-2.83,7.41-8.36,9.61-13.06a79.23,79.23,0,0,0,4.83-12.15c.43-1.51.77-3.05,1.15-4.59.09.07.18.1.19.15a48.54,48.54,0,0,0,2.57,8.18c.46,1.22,3.68,8.88,4.27,10.56.39,1.09,1.56,2.54.93,3.75-.29.54-.86.62-1.41.81-1.51.53-3.55.61-4.44,2.06-.77,1.24-.11,3.68.57,5s2.17,1.94,3,3a5.22,5.22,0,0,1,1.25,3.51c0,1.41-.57,3.1-.08,4.47a5.41,5.41,0,0,0,1.89,2.56l2,1.63a5.1,5.1,0,0,0,1.84,1.1,1.73,1.73,0,0,0,1.93-.61.58.58,0,0,0,.11-.31c0-.48-.58-.69-1-1-1.15-.8-.6-2.56-.11-3.87,1.41-3.68,1.4-7.73,1.38-11.67q0-3.33,0-6.66c0-2.86.06-5.73.1-8.6s.09-5.89.14-8.84c.05-2.46.09-4.92.15-7.38,0-.94,0-1.88.07-2.82,0-.71-.34-1.38.45-1.77a3.83,3.83,0,0,0,.92-.48c.35-.32.29-.65.4-1.06s.35-.68.43-1.05-.07-1,0-1.51c.07-.34.15-.64.49-.77l.12-.05c.7-.26,1.48-.31,1.85-1a1,1,0,0,0,.14-.41.44.44,0,0,0-.13-.39.87.87,0,0,0-.33-.12,8.45,8.45,0,0,1-2.25-.72c-.56-.27-1-.88-1.52-1.22a1.45,1.45,0,0,1-.72-1.44c0-1.43,0-2.86-.07-4.29a5.23,5.23,0,0,0-2.32-4.25,7.78,7.78,0,0,0-7.13-1,21.24,21.24,0,0,0-3.62,1.5A58.16,58.16,0,0,0,108.81,48c-1,.94-2,1.7-3.42,1.16a7.66,7.66,0,0,0-.85-.08,13.08,13.08,0,0,0-8.67,1.42,1.71,1.71,0,0,1-.91.2,13.55,13.55,0,0,1-3.89-1,1,1,0,0,1-.76-1.19A8.52,8.52,0,0,0,89.8,45a5.67,5.67,0,0,0-2-2.77c-1.74-1.29-2.84-1.3-4.52,0a3.7,3.7,0,0,1-1.52.73,6.61,6.61,0,0,1-4.64-.62,24.41,24.41,0,0,0-5.83-2.24,2.47,2.47,0,0,1-1.86-1.93c-.36-1.27,0-1.82,1.33-2.05.16,0,.33,0,.48-.06A6.7,6.7,0,0,0,74,34.9a1.19,1.19,0,0,0,.53-1.16,22,22,0,0,1,.23-5.25c.06-1,.25-1.91.39-2.88,2,.61,4.07-1.2,4.49-3.18a2.79,2.79,0,0,0-.32-2,1.72,1.72,0,0,0-2.12-.77,1.24,1.24,0,0,0-.84,1,1.12,1.12,0,0,0,.47,1.18,2.4,2.4,0,0,0,.67.22c0-.17.09-.35.14-.53.12-.41.58-.59.79-.25a1.43,1.43,0,0,1,.2,1,1.45,1.45,0,0,1-2.2.77,3.09,3.09,0,0,1-.67-4.84c.31-.32.69-.57,1-.87.76-.68.84-.91.41-1.81s-1-1.71-1.44-2.56a3.4,3.4,0,0,0-2.08-1.6c-3.12-1-6.21-2.07-9.34-3a17.17,17.17,0,0,0-14.41,1.75,21.05,21.05,0,0,0-8.12,9.15,12.79,12.79,0,0,0-1.37,6.53,4.07,4.07,0,0,0,1.34,2.93c.71.61,1.45,1.19,2.19,1.78a11.51,11.51,0,0,1,2.72,2.63,4.72,4.72,0,0,1,.42,4.78,3.54,3.54,0,0,1-4.26,2,3,3,0,0,1-2.25-2.22,2.65,2.65,0,0,1,2.12-3.29,1.67,1.67,0,0,1,1.92,1.32,1.54,1.54,0,0,1-1.2,2.05l-.47.16a1.48,1.48,0,0,0,1.62.8,2.14,2.14,0,0,0,1.55-1.28,2.89,2.89,0,0,0-2.27-3.87,3.64,3.64,0,0,0-4.13,2.35,7.69,7.69,0,0,0,.6,7.18,13.65,13.65,0,0,0,2,2.6c4,4.07,9,6.08,14.4,7.08,1.92.35,3.87.52,5.82.68a1,1,0,0,1,1.49.25,7.65,7.65,0,0,0,1.45,1.67c-.18-.84-.34-1.68-.47-2.52-.43-2.95-.92-5.9-1.18-8.86a30.75,30.75,0,0,0-1.48-7.8c-.48-1.34-1.12-2.63-1.72-3.93-.14-.3-.32-.61-.84-.49a3.09,3.09,0,0,1-3.17-1.43A3.43,3.43,0,0,1,56,28.43c0-1.12.76-1.5,1.75-1,.26.14.51.3.86.5-.22-1.27-.45-2.39-.61-3.51a6.36,6.36,0,0,1,.8-4.72.71.71,0,0,0-.05-1,3,3,0,0,1-.87-1.82c1.52,2.33,3.74,2.61,6.22,2.12.72-.14,1.43-.37,2.15-.51A8.82,8.82,0,0,1,70,18.26c-.15.59-.68,1-.5,1.66.53-.35,1-.69,1.54-1,.09-.05.29.08.43.13a2.42,2.42,0,0,0-.25.31,2,2,0,0,0-.12.34c.48-.1.53,0,.17.34a2,2,0,0,0-.63,2.32c.48-.76.48-.76,1.36-.31l-.59.24c.22.48.62.23,1,.26l-.53.38a1.64,1.64,0,0,0,1-.11c.56-.29.7,0,.81.46l0,0,.26.52,0,0,.26.77v0c.52,1.46-.06,2.88-.2,4.32,0,0-.2.11-.24.08-.79-.51-.64.48-1,.65s-1-.43-1.37.13c-.07.1-.16.19-.23.29a3.19,3.19,0,0,1-2.79,1.42,1.59,1.59,0,0,0,1.62.36c.61-.15,1.19-.4,1.79-.6.09.12.17.26.26.38.47.6.47.63-.23.86-.13.05-.26.07-.52.14,1,.71,1.78.29,2.58,0a1.76,1.76,0,0,1-.94,1.95,6.15,6.15,0,0,1-1.35.57,11.28,11.28,0,0,1-4,.29A7.9,7.9,0,0,1,63.05,34a4,4,0,0,0-.72-.33,5,5,0,0,0,2.84,2,16.77,16.77,0,0,0,2.74.63c.57.09.71.33.73.88,0,.92.21,1.85.32,2.79a4.84,4.84,0,0,0-3.32,5.27c.44-.72.92-1.62,1.52-2.43A3.57,3.57,0,0,1,71,41.33a17.62,17.62,0,0,1,2,.56A40.7,40.7,0,0,1,81.34,46,62.26,62.26,0,0,0,92.47,51.6c.06,0,.09.1.17.2l-.73.39a1.62,1.62,0,0,0,1.81.54,13.19,13.19,0,0,0,1.74-.59c1.61-.59,3.18-1.31,4.83-1.75a14.7,14.7,0,0,1,6.09,0c3.27.49,6.54,1,9.82,1.41,1.21.17,2.44.24,3.66.32a1.94,1.94,0,0,0,2-1.13c.34-.66.85-1.22,1.16-1.88a4,4,0,0,1,2.58-2.1,6.49,6.49,0,0,0,3.58-2.34,3,3,0,0,1-1.75,2.77l-1.83.69c1.15,0,2.23-.24,3.32-.32a6.63,6.63,0,0,1,5.85,2.06c-.73.08-1.16-.49-1.68-.83a4.24,4.24,0,0,0-1.29-.61c-.13,0-1.23-.15-1,.26a.26.26,0,0,0,.19.12,14.65,14.65,0,0,1,1.45.51c.55.24,1,.57,1.57.86a8.14,8.14,0,0,0,3.62.79.2.2,0,0,1,.23.21.5.5,0,0,1-.21.43,1.09,1.09,0,0,1-.45.21,6.81,6.81,0,0,1-1,.2c-.59.09-.53.67-.58,1.12s0,.68,0,1a3.66,3.66,0,0,1-.25.9,2.34,2.34,0,0,1-.43.79.78.78,0,0,1-.76.23c-.23-.06-.47-.07-.7-.13a6.18,6.18,0,0,1-2.51-1.28,1.09,1.09,0,0,0-1.42-.17,4.48,4.48,0,0,1-.69.27A15.11,15.11,0,0,1,123.21,56a2.78,2.78,0,0,1-2.3-.94,1,1,0,0,0-1.16-.4c-2.78.5-5.55,1-8.34,1.4-3.85.52-7.7,1-11.56,1.35a40.44,40.44,0,0,1-14.1-1.32q-5-1.35-10.07-2.62c-1.27-.33-2.55-.6-3.84-.83a1.85,1.85,0,0,0-2.36,1.7,3.94,3.94,0,0,0,0,1.49l.36,0H70c.06-.38.13-.75.2-1.12a1.15,1.15,0,0,1,1.24-1,13,13,0,0,1,4.54,1,19.53,19.53,0,0,0-1.61,2.07l.07.07a5.28,5.28,0,0,1,2.88,1.37C79.17,60,79.1,63,78.55,65.34A12.63,12.63,0,0,1,75,71.91L75,72a24.74,24.74,0,0,1-.59,9.57c-.75,2.86-1.58,5.84-3.62,8-3.81,4-10.3,4-15,6.3-9.19,4.48-20.45.75-29.07-5.12-2.42-1.65-4.85-3.14-6.22-5.78-2-3.89-3.45-8.85-5.85-12.3-.22,2.13-1.07-2.09-1.11.06C13.17,85,29.92,98.2,40.44,99.25c6,.6,11.45.7,17.21-1.48,1.85-.7,4-.07,5.87-.27s3.59-.84,5.37-.76c3.15.14,6,2.08,9.24,1.4,1.85-.39,3.49-1.47,5.34-1.85a14.68,14.68,0,0,1,4.39,0ZM71.66,31.15a2.74,2.74,0,0,1,1.47-.86A1.55,1.55,0,0,1,71.66,31.15Zm60.82,13.71c0,.53-.13,1.06-.15,1.59s-.2.75-.75.68-1.37-.13-2.15-.21c1-2.05.94-2.79-.29-4.1a6.06,6.06,0,0,1-4,3.47,4.93,4.93,0,0,0-3.11,2.9,7.94,7.94,0,0,1-.42.75,2.51,2.51,0,0,1-3.09,1.47c-1.61-.26-3.21-.53-4.82-.82-1.35-.25-2.7-.54-4.09-.81,1.22-1.26,2.36-2.48,3.56-3.63a33.66,33.66,0,0,1,9.26-6.56c.74-.34,1.52-.61,2.27-.93,2.69-1.16,6.26.81,7.33,3A6.38,6.38,0,0,1,132.48,44.86ZM88.33,65.94a5.34,5.34,0,0,0-2.07.8c-1.33,1-2.16,3.12-3.5,4.37a2.08,2.08,0,0,1-.91.59c-.93.21-1.64-.91-1.62-1.85a16.31,16.31,0,0,1,1.43-6.76c.94-1.91,2.53-3.33,3.69-5.07.58-.87.58-.87,1.6-.65a37.19,37.19,0,0,0,11,1.05c-1.39,1.09-2.6,2-3.74,2.95a47.39,47.39,0,0,0-3.57,3.37A4.18,4.18,0,0,1,88.33,65.94Zm30-4.9a6.78,6.78,0,0,1-.35,2.53,79.85,79.85,0,0,1-5.29,12.8A22.41,22.41,0,0,1,92.79,88.16c-3.49,0-7.67-.19-8.88-4.15-.88-2.9,0-6.55,1.69-9,2.8-4.21,7.21-7,10.2-11.11a31.38,31.38,0,0,1,5-5.38,2.71,2.71,0,0,1,1.37-.48c2.58-.36,5.18-.67,7.77-1s5.25-.79,7.88-1.18c.32-.05.64-.05,1.19-.08A9.63,9.63,0,0,0,118.3,61Zm13.08,43.43c-.46,1.84-.94,4.13.5,5.37-.3.4-1,.27-1.33-.07s-.73-.83-1.06-1.21c-.75-.86-1.55-1-2.38-1.81s-.92-2.42-.79-3.72a9.39,9.39,0,0,0-.4-3.83c-.61-2-2.37-3.27-3.2-5.18-.4-.94-1.28-2.79-.79-3.69s2.44-1,3.58-1.23c1.5-.34,2.84-2,2.4-3.11-.85-2.1-1.44-4.28-2.22-6.4-.64-1.72-1.24-3.45-1.82-5.2-.38-1.22-.77-2.43-1.14-3.65-.54-1.78-1-3.56-1.52-5.36h0c-.25-1-.49-2-.71-2.93a9.74,9.74,0,0,1-.18-4.62c.11-.42.27-.83.46-1.39,1.43,1.09,2.88.81,4.31.42s3-.9,4.45-1.38c1.08-.35,1.4.46,2.31,1,.09,4.75,0,10,.13,14.72.08,3.7.2,7.39.37,11.09C132.66,89.74,133.17,97.27,131.38,104.47Z"/><path d="M66.24,25.26l.09,0s0-.05,0-.08l-.12.11L65,25.73c.19-.31.41-.61.57-.94s0-.48-.35-.52l-.09-.86c.87-.25,1.65.28,2.66.45a3.94,3.94,0,0,0-2.5-1.53,3.42,3.42,0,0,0-3,1.17l.29-.91.16-.23-.22.16a3,3,0,0,0-1.19,1.78c-.09.22-.13.54-.29.62-.63.34-.15.58.08.67a18,18,0,0,0,2.75.89A2.12,2.12,0,0,0,66.24,25.26Zm-2.29-1c.09,0,.27.26.44.38.44.3.56-.21.83-.34-.38.84-.61.9-1.88.45A2.29,2.29,0,0,1,64,24.26Zm-1.22,1.22c.1,0,.25-.11.31-.07a2.73,2.73,0,0,0,1.91.36,2.67,2.67,0,0,1-2,0C62.83,25.77,62.79,25.59,62.73,25.48Z"/><path d="M63.45,20.85c.79,0,1.58.22,2.48.35a4.23,4.23,0,0,0-2.39-.95,3.64,3.64,0,0,0-4.31,2.85,2.17,2.17,0,0,0,.09.65c.26-.07.59-.07.74-.24a3.58,3.58,0,0,0,.53-1A2.81,2.81,0,0,1,63.45,20.85Z"/><path d="M72.77,27.62l-1.85.46.72.25C72.52,28.66,72.52,28.66,72.77,27.62Z"/><path d="M62.83,22.29h0l0,.06.06,0Z"/><path d="M62.9,22.2l-.07.09.05,0S62.89,22.22,62.9,22.2Z"/><path d="M71.39,22.31h0l-.09,0Z"/><path d="M62.31,33.61l-.08,0,.07.07Z"/><path d="M68.1,31.35l.09.06h0Z"/><polygon points="35.79 84.47 41.55 83.9 43.3 88.17 38.36 89.35 35.79 84.47"/><path d="M72.39,49a12.5,12.5,0,0,1-1.68-.6,13.64,13.64,0,0,1-1.85-1.25,1.37,1.37,0,0,1,.34-2.37,1,1,0,0,1,.78.09c.64.37,1.3,1.09,1.38-.43,0-.23.48-.51.79-.61a1.25,1.25,0,0,1,.93.08c.5.3.64,1.12.71,1.85.11,1.28-.62,2.17-1.25,3.12C72.48,48.94,72.36,49,72.39,49Z"/><polygon points="53.27 11.34 47.98 2.61 49.4 12.01 42.12 6.74 42.9 7.6 42.13 6.76 46.58 14.56 37.39 12.14 45.5 18.34 50.42 15.94 50.39 15.9 53.27 11.34"/><circle cx="38.07" cy="12.62" r="1.05"/><circle cx="48.23" cy="3.5" r="1.05"/><circle cx="42.56" cy="7.27" r="1.05"/><path class="cls-3" d="M48.25,115.09l.13,0h.21a.68.68,0,0,1,.28.1.24.24,0,0,1,.1.2.38.38,0,0,1,0,.1.91.91,0,0,1-.45.56,2.58,2.58,0,0,1-.61.28,3,3,0,0,1-.39.13c.21,2.2.38,4.39.5,6.6,0,.11-.08.21-.23.3a2.53,2.53,0,0,1-.55.23,3.55,3.55,0,0,1-.55.11h-.07c-.11,0-.17,0-.18,0,0-.62-.07-1.24-.11-1.85-.09-1.66-.2-3.33-.32-5l-.15,0c-.35.07-.7.14-1,.23l-1.36.35-.75.21a36.21,36.21,0,0,0-.22,4.3l0,.85,0,.45q0,.36,0,.72a1.34,1.34,0,0,1-.64,1.07,1.59,1.59,0,0,1-.75.25,1.47,1.47,0,0,1-.36,0,.58.58,0,0,1-.4-.34,1.56,1.56,0,0,1-.1-.53v-.07c0-.91,0-1.87,0-2.87a37.59,37.59,0,0,1,.38-4.11c.2-1.36.45-2.7.75-4s.6-2.63,1-3.93c.18-.71.39-1.41.61-2.11,0-.07,0-.16.07-.24a7.35,7.35,0,0,1,.66-1.68.87.87,0,0,1,.33-.33,1.45,1.45,0,0,1,.42-.16l.21,0a1.09,1.09,0,0,1,.26,0,.19.19,0,0,1,.15.17v.1c0,.1,0,.22,0,.33a1.21,1.21,0,0,1,.32-.09h0a.17.17,0,0,1,.14.05l0,.12a13.92,13.92,0,0,1,.72,1.83,18.49,18.49,0,0,1,.39,2.1c.19,1.37.34,2.74.47,4.11,0,.1,0,.2,0,.3l.15,1.36A5,5,0,0,1,48.25,115.09Zm-3.16.79.6-.19.22-.08c0-.4-.06-.8-.1-1.2-.13-1.48-.27-3-.44-4.43-.08-.63-.17-1.25-.27-1.88a1.87,1.87,0,0,1,0-.25l-.05-.27q-.06-.45-.15-.9a.25.25,0,0,1,0,.07c0,.14-.07.28-.1.41-.18.75-.35,1.5-.53,2.26-.36,1.45-.67,2.92-1,4.4-.17.92-.31,1.84-.43,2.77.69-.24,1.4-.46,2.11-.67Z"/><path class="cls-3" d="M58.74,122c.27.21.4.39.41.54a.55.55,0,0,1-.2.33,2.06,2.06,0,0,1-.93.33,1.25,1.25,0,0,1-.32,0,2.53,2.53,0,0,1-1.71-.76,23.85,23.85,0,0,1-2.75-3.17.39.39,0,0,0-.08-.1A20.47,20.47,0,0,1,51.61,117c0,.31,0,.75,0,1.34s0,1.17-.08,1.74-.07,1-.1,1.22a2.5,2.5,0,0,1-.16.68,2,2,0,0,1-.73.79,1.87,1.87,0,0,1-.9.31h-.27c-.17,0-.28-.17-.34-.5a2.11,2.11,0,0,1,0-.26c0-.09,0-.21,0-.37s0-.44,0-.86.08-1.28.13-2.34q.2-4.38.16-8.74c0-.93,0-1.69,0-2.29,0-.77,0-1.33,0-1.67a.8.8,0,0,1,.71-1l.25-.1.08,0a1.68,1.68,0,0,1,.31-.12,1.21,1.21,0,0,1,.35-.09h.07a.19.19,0,0,1,.16.07l0,0h0a4.14,4.14,0,0,1,1.7-.79,2.84,2.84,0,0,1,.64-.1,3.54,3.54,0,0,1,1.59.32,3.31,3.31,0,0,1,1.53,1.56,4.64,4.64,0,0,1,.44,1.82c0,.26,0,.71-.06,1.36a8.51,8.51,0,0,1-1,2.88,12.49,12.49,0,0,1-1.55,2.32,8.24,8.24,0,0,1-1.56,1.47l.89,1q1.08,1.31,2.46,2.85A18.9,18.9,0,0,0,58.74,122ZM54,106.36c-.43-.59-.81-.87-1.15-.86H52.6a1.41,1.41,0,0,0-.69.33,2.12,2.12,0,0,1-.5.25c.08,1,.14,2,.19,3,.07,1.75.1,3.5.07,5.26a8.81,8.81,0,0,0,1.38-1.68,9.91,9.91,0,0,0,1.21-2.56,6,6,0,0,0,.27-1.93v-.14A3.26,3.26,0,0,0,54,106.36Z"/><path class="cls-3" d="M70.4,122.41a25.16,25.16,0,0,0,9.94,3c4.62.51,9.26.8,13.92.91,13.86.31,26.57-3,37.51-11.74-.26.25.19,1.73.15,2.12a6.17,6.17,0,0,1-1.84,3.34c-9.28,10-26,10.53-38.53,9.63-10-.71-27.17-2.54-29.59-14.81a30.67,30.67,0,0,1-.91,6.53c-.17.68-.69,1.52-1.33,1.24-.44-.19-.5-.78-.49-1.26l.28-14.62a3.8,3.8,0,0,1,.31-1.74,1.33,1.33,0,0,1,1.47-.75,47.19,47.19,0,0,1,.6,8.72,13.48,13.48,0,0,0,3.63-5c.65-1.53,1.32-3.45,3-3.72A15.11,15.11,0,0,1,64.35,112a2.66,2.66,0,0,0-1,1.5,2.37,2.37,0,0,0,.23,1.1A15.65,15.65,0,0,0,70.4,122.41Z"/><path class="cls-3" d="M92.65,113.38l.13,0H93a.58.58,0,0,1,.27.09.21.21,0,0,1,.1.2v.1a.88.88,0,0,1-.44.54,3.27,3.27,0,0,1-.59.28,2.91,2.91,0,0,1-.39.12q.31,3.21.49,6.42c0,.11-.08.21-.23.3a1.83,1.83,0,0,1-.53.21,2.51,2.51,0,0,1-.53.11h-.07c-.11,0-.16,0-.17,0,0-.61-.08-1.21-.11-1.8-.09-1.62-.2-3.24-.31-4.85l-.15,0-1,.22c-.44.11-.88.22-1.32.35l-.73.2a36.34,36.34,0,0,0-.21,4.18l0,.83c0,.14,0,.28,0,.43a5.61,5.61,0,0,1,0,.71,1.3,1.3,0,0,1-.62,1,1.5,1.5,0,0,1-.73.24,1.11,1.11,0,0,1-.36,0,.55.55,0,0,1-.39-.33,1.73,1.73,0,0,1-.09-.51v-.07c0-.89,0-1.82,0-2.79a35.39,35.39,0,0,1,.37-4c.2-1.33.44-2.63.73-3.93s.59-2.55.93-3.81c.18-.7.38-1.38.59-2.06a1.55,1.55,0,0,0,.07-.23,7.66,7.66,0,0,1,.64-1.64.92.92,0,0,1,.33-.32,1.36,1.36,0,0,1,.41-.15l.2,0a.58.58,0,0,1,.26,0,.18.18,0,0,1,.14.16v.1c0,.1,0,.21,0,.32a1.15,1.15,0,0,1,.31-.09h0a.17.17,0,0,1,.14,0l0,.11a12.09,12.09,0,0,1,.7,1.79,17.48,17.48,0,0,1,.39,2c.18,1.33.33,2.66.45,4l0,.29c0,.44.09.88.13,1.32A6.53,6.53,0,0,1,92.65,113.38Zm-3.07.77.58-.19.22-.07c0-.39-.06-.78-.1-1.17-.12-1.44-.27-2.88-.43-4.31-.07-.61-.16-1.22-.26-1.83,0-.08,0-.16,0-.24l0-.27-.15-.88a.64.64,0,0,1,0,.07c0,.14-.07.28-.1.4-.17.73-.34,1.47-.52,2.2-.34,1.41-.65,2.84-.92,4.28-.16.9-.3,1.79-.42,2.7.67-.24,1.36-.45,2.05-.66A.8.8,0,0,1,89.58,114.15Z"/><path class="cls-3" d="M102.25,103.83a1.29,1.29,0,0,1,.61-.59,2.5,2.5,0,0,1,1-.33h.09a.58.58,0,0,1,.55.22,2.92,2.92,0,0,1,.22.88c0,.13,0,.25,0,.38s0,.36,0,.55v.3q0,7.5-.31,14.57c0,.2-.24.42-.61.65a3.62,3.62,0,0,1-1.2.47l-.23,0a.7.7,0,0,1-.67-.28c-.69-1.18-1.39-2.35-2.11-3.5s-1.55-2.55-2.3-3.86c-.46-.8-.9-1.63-1.31-2.49,0,.38,0,.76,0,1.13,0,1.84-.06,3.47-.12,4.88s-.12,2.28-.17,2.61a2.87,2.87,0,0,1-.14.66,2,2,0,0,1-.72.77,1.75,1.75,0,0,1-.87.3h-.26c-.16,0-.28-.16-.35-.48a2.11,2.11,0,0,0,0-.25c0-.09,0-.21,0-.36s0-.44,0-.84.07-1.25.13-2.28c.08-1.84.12-3.53.14-5.06s0-2.86,0-4c0-.59,0-1.12,0-1.57,0-.19,0-.39,0-.61v-.21a5.54,5.54,0,0,1,.11-1.43.67.67,0,0,1,.3-.27,3.89,3.89,0,0,1,.58-.26,4.76,4.76,0,0,1,.59-.18l.13,0c.1,0,.15,0,.17.05a.7.7,0,0,1,.08.2,1.76,1.76,0,0,1,.06.35c0,.15,0,.38.07.67s.05.68.09,1.17a47,47,0,0,0,2.39,4.2c.94,1.47,1.92,3,3,4.53l.77,1.14c.08-2.17.13-4,.13-5.35s0-2.5,0-3.32,0-1.52,0-2A4.5,4.5,0,0,1,102.25,103.83Z"/><path class="cls-3" d="M113.75,102.55a5.08,5.08,0,0,1,2,2.08,7,7,0,0,1,.8,3,11.81,11.81,0,0,1-.73,4.39,18.68,18.68,0,0,1-2.08,4.08,19.64,19.64,0,0,1-2.68,3.22,7.31,7.31,0,0,1-2.29,1.49,4.84,4.84,0,0,1-1.47.34,5,5,0,0,1-1-.11,1.6,1.6,0,0,1-1.05-1,.38.38,0,0,1,0-.1.49.49,0,0,1,.12-.34,1.28,1.28,0,0,1,.32-.29q.15-2.86.21-4.41c.05-1,.08-1.91.09-2.66s0-1.65,0-2.7,0-2.17,0-3.75c0-.19,0-.39,0-.61a2.11,2.11,0,0,1,0-.25,5.23,5.23,0,0,1,.11-1.39.55.55,0,0,1,.29-.29,2.22,2.22,0,0,1,.42-.16l.14,0,.07,0,.3-.12a1.65,1.65,0,0,1,.34-.08h.07a.16.16,0,0,1,.15.06,1.65,1.65,0,0,1,.14.46,5.45,5.45,0,0,1,2.82-1.29l.5,0A4.7,4.7,0,0,1,113.75,102.55Zm-.9,10.66a13.61,13.61,0,0,0,.88-2.47,8.48,8.48,0,0,0,.26-2.51v-.17a6.42,6.42,0,0,0-.78-2.79,3.78,3.78,0,0,0-1.43-1.48,2.84,2.84,0,0,0-1.44-.36h-.1a2.12,2.12,0,0,0-.76.23,3.41,3.41,0,0,0-.57.4,2.36,2.36,0,0,1-.85.49c0,.72.1,1.46.13,2.23.06,1.22.08,2.68.09,4.39s0,3.39-.11,5a27.71,27.71,0,0,1-.23,3,3,3,0,0,0,1.68-1.1,16.44,16.44,0,0,0,1.83-2.39A23.47,23.47,0,0,0,112.85,113.21Z"/><path class="cls-3" d="M123.68,112h.12a1.32,1.32,0,0,1,.2,0,.63.63,0,0,1,.28.1.21.21,0,0,1,.09.19.34.34,0,0,1,0,.1.88.88,0,0,1-.44.55,2.4,2.4,0,0,1-.59.27,3,3,0,0,1-.39.13q.31,3.2.49,6.42a.34.34,0,0,1-.22.29,2.35,2.35,0,0,1-.53.22,3.45,3.45,0,0,1-.54.11h-.07c-.11,0-.16,0-.17,0,0-.6-.07-1.2-.11-1.8-.09-1.62-.2-3.23-.31-4.84l-.15,0-1,.23-1.32.34-.73.2a34.49,34.49,0,0,0-.22,4.19l0,.83,0,.43c0,.23,0,.47,0,.71a1.25,1.25,0,0,1-.62,1,1.52,1.52,0,0,1-.73.25,1.47,1.47,0,0,1-.36,0,.58.58,0,0,1-.38-.33,1.5,1.5,0,0,1-.1-.52V121c0-.89,0-1.82,0-2.79a38.3,38.3,0,0,1,.37-4c.2-1.32.44-2.63.73-3.92s.59-2.55.93-3.82c.18-.69.38-1.38.59-2.05a2.17,2.17,0,0,0,.07-.24,8.13,8.13,0,0,1,.64-1.63.92.92,0,0,1,.33-.32A1.39,1.39,0,0,1,120,102l.2,0a.74.74,0,0,1,.26,0,.19.19,0,0,1,.14.16v.1c0,.11,0,.21,0,.32a1.15,1.15,0,0,1,.31-.09h0c.07,0,.12,0,.14,0l0,.11a13.75,13.75,0,0,1,.71,1.78,20.52,20.52,0,0,1,.38,2.05c.18,1.33.33,2.66.45,4a2.58,2.58,0,0,1,0,.29c0,.44.09.88.14,1.32A6.1,6.1,0,0,1,123.68,112Zm-3.08.77.58-.18.22-.08-.09-1.17c-.13-1.44-.27-2.87-.44-4.31-.07-.61-.16-1.22-.26-1.83a2,2,0,0,1,0-.24l0-.26c0-.29-.09-.59-.15-.88a.25.25,0,0,1,0,.07c0,.14-.07.27-.1.4-.17.73-.34,1.46-.52,2.19-.34,1.42-.65,2.84-.92,4.29q-.24,1.33-.42,2.7c.68-.24,1.36-.46,2-.66Z"/><path class="cls-4" d="M21.1,118.86c0-3.29.29-6-.69-9.15a1.07,1.07,0,0,0-.32-.59,1.34,1.34,0,0,0-.89-.17,10.44,10.44,0,0,1-3.88-.6c-.53-.19-1.13-.54-1.12-1.08,0,.09,7.46-1.68,8.05-1.84,4.17-1.17,8.76-2.66,13-.71a8.21,8.21,0,0,1,3.53,3,8.59,8.59,0,0,1,1.4,4.41,14.37,14.37,0,0,1-1.36,6.38,25.93,25.93,0,0,1-3.79,6,31.53,31.53,0,0,1-4.86,4.71A13.77,13.77,0,0,1,26,131.34a10.15,10.15,0,0,1-2.65.52,9.59,9.59,0,0,1-1.8-.15,2.59,2.59,0,0,1-1.88-1.51,1,1,0,0,1,0-.15.71.71,0,0,1,.23-.49,2.14,2.14,0,0,1,.58-.43c.2-2.77.35-4.91.44-6.4S21.07,120,21.1,118.86Zm12.41,1.34a17.34,17.34,0,0,0,1.61-3.59,9.87,9.87,0,0,0,.5-3.65v-.24c-.43-4.17-2.59-6.82-7.14-5.72-.29.07-3.51.41-3.49.68.09,1,.17,2.13.22,3.24.08,1.77.11,3.89.1,6.38s-.1,4.92-.25,7.29a30.94,30.94,0,0,1-.46,4.43,6,6,0,0,0,3-1.61,25.35,25.35,0,0,0,3.31-3.5A30,30,0,0,0,33.51,120.2Z"/><path class="cls-5" d="M79.93,101.37c1.47-.23,2.59-.35,3.92.83a4.9,4.9,0,0,1,1.5,3.51,10.56,10.56,0,0,1-1,4.65,15.29,15.29,0,0,1-2.7,4.16,7.93,7.93,0,0,1-3.36,2.35c-1,.43-.43,4.24-.46,5.14a16,16,0,0,1-1.54,7c-.7,1.25-3.21,3.27-4.75,2.82,1.17-2.72,2.62-5.25,3.17-8.16a49.18,49.18,0,0,0,.83-9.76,28.67,28.67,0,0,0-.77-7.34c-.54-1.81-2.43-1.82-3.07-3.67-.1-.3-.14-.69.11-.89a.87.87,0,0,1,.53-.15c2.35-.15,4.83-.08,7.15-.45Zm-1.58,13a11.39,11.39,0,0,0,2.28-3A11.53,11.53,0,0,0,82,107.55a6.11,6.11,0,0,0,.08-1.19,4.49,4.49,0,0,0-.7-2.25q-.85-1.17-1.5-1.14h-.33a1.78,1.78,0,0,0-.86.45,2.6,2.6,0,0,1-.64.33c.11,1.31.19,2.62.25,3.92C78.37,109.9,78.39,112.12,78.35,114.34Z"/><path class="cls-2" d="M72.72,121.83a11,11,0,0,1-1.76-.57A13.75,13.75,0,0,1,69,120a1.43,1.43,0,0,1,.26-2.48,1.07,1.07,0,0,1,.82.07c.68.36,1.39,1.08,1.42-.5,0-.24.48-.55.79-.67a1.38,1.38,0,0,1,1,.06c.52.29.7,1.14.8,1.89.16,1.34-.57,2.28-1.19,3.29A.3.3,0,0,1,72.72,121.83Z"/><path class="cls-2" d="M37.56,132.1a2.59,2.59,0,0,1,.5,0,.21.21,0,0,1,.1.06v0s-.13.08-.35.09a5,5,0,0,1-.86-.09l-.85-.15a1.55,1.55,0,0,0,0,.15c0,.17-.11.41-.2.71l-.21.69c-.11.33-.33.92-.68,1.77-.13.33-.23.57-.31.73a1.32,1.32,0,0,1-.19.31.84.84,0,0,1-.33.13.89.89,0,0,1-.33,0l-.09,0s-.08-.08-.07-.18,0,0,0-.06a1.4,1.4,0,0,1,.11-.27.37.37,0,0,1,0-.11,1.6,1.6,0,0,1,.1-.23l.15-.34c.41-1,.72-1.8.94-2.44.06-.18.12-.34.17-.48l.06-.17,0-.06a1.17,1.17,0,0,1,.1-.26l-.74-.2-.47-.15c-.06,0-.08-.05-.08-.06s0,0,0,0,.07,0,.17,0a1.15,1.15,0,0,1,.31,0l1.23.28h.11l.12,0h0a.09.09,0,0,1,.06,0l1.09.2.49.06h-.15Z"/><path class="cls-2" d="M39,134.71a1.28,1.28,0,0,1,.53,1.08,1.12,1.12,0,0,1,0,.31,1.76,1.76,0,0,1-.56.84,2.73,2.73,0,0,1-1.09.57,1.79,1.79,0,0,1-.86,0l-.31-.12q-.24-.09-.36-.54a1.51,1.51,0,0,1,0-.61l.09-.29a3.14,3.14,0,0,1,.38-.69,3.31,3.31,0,0,1,.75-.79.54.54,0,0,1,.35-.08,1.1,1.1,0,0,1,.51,0l.19.06A1.2,1.2,0,0,1,39,134.71Zm-.8,1.87a1.45,1.45,0,0,0,.3-.56,1,1,0,0,0,0-.64,1.08,1.08,0,0,0-.45-.54c-.13.18-.26.37-.37.56a3.33,3.33,0,0,0-.27.61,1,1,0,0,1,0,.16,3.65,3.65,0,0,0-.07.4.64.64,0,0,0,.1.44l.06,0a.34.34,0,0,0,.21-.05,1.62,1.62,0,0,0,.31-.19A2.28,2.28,0,0,0,38.15,136.58Z"/><path class="cls-2" d="M43.53,136a1,1,0,0,1,.26.55,1.57,1.57,0,0,1,0,.53l0,.09a1.62,1.62,0,0,1-.76,1,2.63,2.63,0,0,1-.78.3,5,5,0,0,1-.83.08,2.69,2.69,0,0,1-.54-.06l-.1,0a.57.57,0,0,1-.22-.11.19.19,0,0,1-.08-.21.18.18,0,0,1,.14-.07l.25,0H41v0a1.34,1.34,0,0,0,.07-.18l.21-.58c.13-.38.25-.76.37-1.13s.24-.78.35-1.17l.06-.24c0-.16.09-.32.14-.48a2.34,2.34,0,0,1,.19-.46l.09,0,.16,0h.24a1.81,1.81,0,0,1,0,.52c0,.17-.06.34-.1.52l0,.16-.12.53-.06.27a1.55,1.55,0,0,1,.52,0h0A1,1,0,0,1,43.53,136Zm-.85,1.68A1.62,1.62,0,0,0,43,137a1.45,1.45,0,0,0,0-.47.89.89,0,0,0-.2-.49.4.4,0,0,0-.14-.13l0,0h-.06l-.06,0h0v0c0,.06,0,.12,0,.19-.1.39-.21.78-.34,1.17-.06.19-.12.39-.19.58l0,.06-.08.23a.19.19,0,0,1-.05.09A1.85,1.85,0,0,0,42.68,137.71Z"/><path class="cls-2" d="M46.28,138.7l0,0,.05.05a0,0,0,0,1,0,0l0,0a.7.7,0,0,1-.29.21,2.84,2.84,0,0,1-.32.14h0a2.73,2.73,0,0,1-.8.18,2,2,0,0,1-.49,0h-.07a1.29,1.29,0,0,1-.41-.16.81.81,0,0,1-.29-.36,1.23,1.23,0,0,1-.1-.57.31.31,0,0,1-.1-.05.1.1,0,0,1,0-.07l0,0a.19.19,0,0,1,.11-.05,2.3,2.3,0,0,1,.25-.66,3.28,3.28,0,0,1,.41-.55,2.51,2.51,0,0,1,.79-.56,1.61,1.61,0,0,1,1-.14h0a.54.54,0,0,1,.34.18.36.36,0,0,1,.08.34v0a.79.79,0,0,1-.23.35,2.79,2.79,0,0,1-.34.28,6.22,6.22,0,0,1-.84.53,3.07,3.07,0,0,1-.45.2,1.1,1.1,0,0,0,.06.62c0,.16.13.24.22.26l.08,0a1.91,1.91,0,0,0,.37-.09h0l.18-.06.41-.1a.62.62,0,0,1,.27,0Zm-.82-2a1.83,1.83,0,0,0-.47.45,2.61,2.61,0,0,0-.17.28l.3-.22,0,0a1.43,1.43,0,0,0,.23-.2.64.64,0,0,0,.18-.25s0-.06,0-.07v0h0l-.07.05Z"/><path class="cls-2" d="M53.24,139.08q0,.22-.06.51t-.06.48a1.69,1.69,0,0,1,0,.21v.05a.48.48,0,0,1-.29.3,1.11,1.11,0,0,1-.43.09h-.12a.34.34,0,0,1-.16-.07l0-.06,0-.1a.28.28,0,0,1,0-.1v0s0-.09,0-.15,0-.2.06-.34c.09-.57.17-1,.23-1.23s0-.25.06-.33,0-.05,0-.1a.3.3,0,0,0,0-.16l0,0s0,0,0,0a2.6,2.6,0,0,0-.37.5l-.34.62c-.11.21-.2.39-.29.54l-.18.26a3.28,3.28,0,0,0-.2.31.41.41,0,0,1-.22.12,1,1,0,0,1-.35,0h-.1a.34.34,0,0,1-.16-.06A.5.5,0,0,1,50,140a1.14,1.14,0,0,1,0-.26.36.36,0,0,1,0-.1,4.91,4.91,0,0,1,.17-.63l0-.1.06-.2c0-.15.1-.31.14-.47s0-.14,0-.22a2.11,2.11,0,0,0,0-.25c0-.14,0-.21,0-.21h0a.9.9,0,0,0-.17.16l0,.05a3.39,3.39,0,0,0-.52.72,6.45,6.45,0,0,0-.3.68,3.53,3.53,0,0,1-.36.76.44.44,0,0,1-.24.13,1.15,1.15,0,0,1-.38,0h0a.67.67,0,0,1-.32-.15.48.48,0,0,1-.14-.38A5.87,5.87,0,0,1,48,139c0-.14.06-.37.12-.68a5.67,5.67,0,0,1,.37-1.1.29.29,0,0,1,.13-.08l.23,0h.25a.06.06,0,0,1,.05.06c0,.2-.05.39-.07.58s-.07.53-.09.8a3.55,3.55,0,0,1,.46-.65,2.1,2.1,0,0,1,.6-.5,1.46,1.46,0,0,1,.46-.14,1,1,0,0,1,.34,0l.24.06a.45.45,0,0,1,.25.31,1.72,1.72,0,0,1,0,.68l0,.21a2,2,0,0,1,.69-.71,1.24,1.24,0,0,1,.68-.19h.14a.66.66,0,0,1,.35.15.5.5,0,0,1,.2.41,4.42,4.42,0,0,1,0,.68Z"/><path class="cls-2" d="M56.33,138.17v.24a.11.11,0,0,1,0,.05.38.38,0,0,1,0,.1s0,.1,0,.2,0,.24-.07.41-.1.51-.16.89l0,.13a3.93,3.93,0,0,1-.15.68,1.72,1.72,0,0,1-.33.61,2.72,2.72,0,0,1-1.08.76,2.17,2.17,0,0,1-1,.12l-.26,0a1,1,0,0,1-.48-.23l0,0-.14-.12a.26.26,0,0,1-.07-.16h0a.18.18,0,0,1,.09-.12l.19-.05h.16l.1,0,.31,0,.26,0a2.94,2.94,0,0,0,.44,0,.85.85,0,0,0,.51-.21,1.58,1.58,0,0,0,.45-.75l.09-.27-.3.12a3.62,3.62,0,0,1-.52.12,1.12,1.12,0,0,1-.58-.07.41.41,0,0,1-.25-.32,1.46,1.46,0,0,1,0-.51,3.84,3.84,0,0,1,.1-.51s0-.07,0-.1a6.36,6.36,0,0,1,.18-.66s0,0,0-.06a2.45,2.45,0,0,1,.12-.31.73.73,0,0,1,.19-.26l.08,0,.19,0,.19,0h.09s0,.07,0,.13a1.89,1.89,0,0,1-.06.21c0,.11-.07.27-.11.47s-.07.38-.1.63l0,.31a1.68,1.68,0,0,0,0,.54c0,.14.09.21.15.22s.07,0,.13,0a1.06,1.06,0,0,0,.3-.34c.13-.2.25-.42.38-.67s.23-.47.32-.68l.18-.4v0a.25.25,0,0,1,.17-.12.91.91,0,0,1,.23,0h.07A.08.08,0,0,1,56.33,138.17Z"/><path class="cls-2" d="M61.77,141.67a.05.05,0,0,1,0,0s0,0-.06.07l-.21.08a1,1,0,0,1-.3.07h-.15l-.1,0a2.4,2.4,0,0,1-.73-.49,4.54,4.54,0,0,1-.57-.69,3.45,3.45,0,0,1-.38-.74,7.41,7.41,0,0,1-.25-.8h0l0,0c-.07.38-.14.71-.21,1a4.36,4.36,0,0,1-.21.64,1.36,1.36,0,0,1-.2.37.54.54,0,0,1-.2.16l-.12,0-.07,0a.3.3,0,0,1-.11-.06l-.09-.1a.09.09,0,0,1,0,0v-.07a.65.65,0,0,1,0-.11s0-.12,0-.23.13-.61.25-1.22h-.14a.24.24,0,0,1,.17-.18c.2-1.14.31-1.9.35-2.3,0-.19,0-.34.06-.44a1,1,0,0,1,.07-.25.33.33,0,0,1,.12-.06l.23-.05.21,0h.05s.06,0,.07,0a.67.67,0,0,1,0,.25v.09c0,.28,0,.56-.06.85,0,.44-.09.89-.17,1.35.27-.18.52-.37.77-.57a5.06,5.06,0,0,0,.73-.69,5.75,5.75,0,0,0,.37-.5c.07-.12.15-.24.25-.38l.1,0,.18,0h.22s0,0,0,0v.08a1.28,1.28,0,0,1-.25.56,4.32,4.32,0,0,1-.6.64,8.24,8.24,0,0,1-.74.61l-.6.44,0,0a10.8,10.8,0,0,0,.83,1.47,4.56,4.56,0,0,0,.64.76,5.27,5.27,0,0,0,.53.4Z"/><path class="cls-2" d="M61.21,141.61c-.07,0-.1,0-.09-.08a1.11,1.11,0,0,1,.08-.3,14.91,14.91,0,0,0,.38-1.82,2.07,2.07,0,0,1,.18-.71s.1-.06.24-.09l.19,0,.05,0a.68.68,0,0,1,.09.35,5.51,5.51,0,0,1,0,.73,9.25,9.25,0,0,1-.22,1.45.79.79,0,0,1-.07.23.31.31,0,0,1-.22.14l-.29.06Zm.61-3.78-.12,0s-.05,0-.06-.05a1,1,0,0,1,.16-.51.52.52,0,0,1,.38-.16.87.87,0,0,1,.2,0l.08,0s0,0,0,.09a.61.61,0,0,1,0,.11s0,.11,0,.21a.26.26,0,0,1-.06.18.57.57,0,0,1-.25.12A.72.72,0,0,1,61.82,137.83Z"/><path class="cls-2" d="M65.62,139a2.14,2.14,0,0,1,.08.7v.07c0,.25,0,.51-.07.76s-.05.47-.07.67v.21a.62.62,0,0,0,.08.35s0,0,0,0,0,.06-.1.1a1.16,1.16,0,0,1-.27.11,1.12,1.12,0,0,1-.35.06h-.07a.36.36,0,0,1-.19-.06.41.41,0,0,1-.13-.29v-.19a.77.77,0,0,1,0-.15v0a7.12,7.12,0,0,1,.16-.85c0-.19.08-.38.11-.56a3.4,3.4,0,0,0,.06-.46v-.13c0-.19,0-.29-.06-.29l-.06,0a1.18,1.18,0,0,0-.22.26,3.78,3.78,0,0,0-.42.78,5.64,5.64,0,0,0-.22.66c0,.08,0,.16-.07.23a2,2,0,0,1-.1.26,1.8,1.8,0,0,0-.08.21.59.59,0,0,1-.19.14,1.6,1.6,0,0,1-.39.11H63a.53.53,0,0,1-.31-.11.63.63,0,0,1-.18-.47,5.42,5.42,0,0,1,0-.57.71.71,0,0,1,0-.14v0a6.5,6.5,0,0,1,.3-1.52s0-.07.12-.09l.22-.07h.25s.05,0,.06.06a2.17,2.17,0,0,0,0,.26c0,.39,0,.77,0,1.16a3.67,3.67,0,0,1,.34-.65,2.79,2.79,0,0,1,.47-.55,1.6,1.6,0,0,1,.47-.25,1.35,1.35,0,0,1,.44-.05l.22,0C65.45,138.77,65.54,138.87,65.62,139Z"/><path class="cls-2" d="M68.55,139.42s0,0,0,0a5.42,5.42,0,0,1,.07,1l0,.34s0,.19,0,.46a3,3,0,0,1-.41,1,2,2,0,0,1-1,.9,2.18,2.18,0,0,1-.94.18h-.14l-.31,0a.84.84,0,0,1-.55-.43.88.88,0,0,1-.11-.24s0-.05,0-.08v0a.27.27,0,0,1,0-.14.52.52,0,0,1,.17-.09,1.09,1.09,0,0,1,.25,0h.08l.12,0a.47.47,0,0,1,.13.15l0,.08v0l.15.16a1.56,1.56,0,0,0,.33.25l.11,0h0l.09,0,.12-.1,0,0a3.18,3.18,0,0,0,.65-.93,1.75,1.75,0,0,1-.64.1h-.24a.85.85,0,0,1-.48-.29.83.83,0,0,1-.2-.53v-.05s0-.07,0-.1a1.66,1.66,0,0,1,.17-.58,3.74,3.74,0,0,1,.33-.58,2.29,2.29,0,0,1,.46-.52,1.58,1.58,0,0,1,.6-.32,1.63,1.63,0,0,1,.45-.07h.18a1,1,0,0,1,.3.08.29.29,0,0,1,.17.29v0A.07.07,0,0,0,68.55,139.42Zm-1.76,1.18a2,2,0,0,0-.12.49v0a1.56,1.56,0,0,0,0,.2.2.2,0,0,0,.15.17l.11,0h0l.22,0a1.24,1.24,0,0,0,.28-.11l.21-.1h0a3.86,3.86,0,0,0,.12-.63v-.12c0-.16,0-.31,0-.47l0-.41,0-.28a.27.27,0,0,0-.08-.07h0c-.09,0-.24.09-.43.29A3.1,3.1,0,0,0,66.79,140.6Z"/><path class="cls-2" d="M69.5,141.24a.83.83,0,0,1,.38.58,1.94,1.94,0,0,1,0,.24,1.15,1.15,0,0,1-.11.47,1.58,1.58,0,0,1-.56.64,2.4,2.4,0,0,1-.69.33,1,1,0,0,1-.32,0,.25.25,0,0,1-.13,0s0,0,0-.07,0-.05.06-.08l.23-.14a2.2,2.2,0,0,0,.3-.19,1.37,1.37,0,0,0,.35-.45,1.2,1.2,0,0,0,.11-.48,1,1,0,0,0,0-.23,1.78,1.78,0,0,0-.14-.47,0,0,0,0,1,0,0s0-.07.1-.1a.62.62,0,0,1,.24-.08h.09A.21.21,0,0,1,69.5,141.24Z"/><path class="cls-2" d="M72.17,136.64l.15,0,.32-.08.27,0H73a.12.12,0,0,1,.1.1s0,0,0,0a.19.19,0,0,1-.1.14.83.83,0,0,1-.25.12,1.23,1.23,0,0,1-.26.08,6.35,6.35,0,0,1,0,.84c0,.19,0,.52,0,1s0,1-.11,1.58a11.72,11.72,0,0,1-.14,1.2.84.84,0,0,1,0,.14.28.28,0,0,1,0,.08l0,0-.07.07.29,0h.17l.06,0a1,1,0,0,1,.25,0h0a.19.19,0,0,1,.18.09s0,0,0,0l0,0a.12.12,0,0,1-.05,0l0,0a1.13,1.13,0,0,1-.41.16c-.16,0-.37,0-.62.07l-.5,0h-.24a.29.29,0,0,1-.16,0s0,0,0,0v0a.08.08,0,0,1,0,0l0,0a2.23,2.23,0,0,1,.43-.16h0s0,0,0,0a.07.07,0,0,1,0,0,.15.15,0,0,1,0-.07,1.49,1.49,0,0,1,0-.28s0-.08,0-.12c.09-.78.15-1.37.19-1.79s.05-.81.07-1.18c0-.22,0-.48,0-.76a1.09,1.09,0,0,0,0-.18v-.06a1.84,1.84,0,0,1,0-.33l-.22,0h0l-.17,0a.11.11,0,0,1-.08-.1v0a.35.35,0,0,1,.25-.19l.45-.1Z"/><path class="cls-2" d="M78.07,139a1.32,1.32,0,0,1,.27.63,2.3,2.3,0,0,1,0,.39,4.94,4.94,0,0,1-.06.68,2.79,2.79,0,0,1-.36.94.83.83,0,0,1-.33.26,1.74,1.74,0,0,1-.48.14h-.07a.42.42,0,0,1-.32-.09,1.2,1.2,0,0,1-.17-.21l-.14-.25v0a5.18,5.18,0,0,1-.26-.65,3.91,3.91,0,0,0-.24.52l-.13.32a.39.39,0,0,1-.16.1l-.3.1-.29.07h-.16a1.6,1.6,0,0,1-.23-.78c0-.09,0-.18,0-.26a5.42,5.42,0,0,1,0-.88,4.17,4.17,0,0,1,.13-.79s0-.06.11-.08a.65.65,0,0,1,.21-.06.88.88,0,0,1,.2,0h.1c0,.21,0,.39,0,.56s0,.24,0,.37,0,.19,0,.34,0,.36.08.65a7.64,7.64,0,0,1,.51-.62s.05,0,.11-.06l.2-.07.2,0h0l0,0a3.54,3.54,0,0,0,.31.77c.13.23.26.45.4.65a2.55,2.55,0,0,0,.24-.86v-.25a2.87,2.87,0,0,0-.07-.5,3.82,3.82,0,0,0-.12-.42l0-.09c0-.08,0-.14,0-.19s0-.06,0-.08v0a.25.25,0,0,1,0-.08l.09-.06.2-.08a.69.69,0,0,1,.2,0h.08A.24.24,0,0,1,78.07,139Z"/><path class="cls-2" d="M78.61,141.89c-.07,0-.11,0-.11-.07a1.18,1.18,0,0,1,0-.31,13.22,13.22,0,0,0,.16-1.85,2.25,2.25,0,0,1,.09-.72s.09-.07.23-.12a.93.93,0,0,1,.19,0h0a.81.81,0,0,1,.14.33,6.82,6.82,0,0,1,0,.74,9,9,0,0,1,0,1.46,1.07,1.07,0,0,1,0,.24.31.31,0,0,1-.2.16l-.28.1Zm.15-3.83h-.12a.1.1,0,0,1-.07,0,1,1,0,0,1,.11-.53.53.53,0,0,1,.35-.21l.2,0h.08s0,0,0,.09a.45.45,0,0,1,0,.11,1.69,1.69,0,0,0,0,.21.36.36,0,0,1,0,.19.45.45,0,0,1-.23.15A.72.72,0,0,1,78.76,138.06Z"/><path class="cls-2" d="M82.28,141.56h0c0,.07,0,.13-.16.2a1,1,0,0,1-.37.12h-.08a.39.39,0,0,1-.25-.05l-.07-.09a1.1,1.1,0,0,1-.09-.14l-.06-.1a.59.59,0,0,1-.29.21,1.51,1.51,0,0,1-.38.12l-.15,0h-.06a.76.76,0,0,1-.29-.3,2.17,2.17,0,0,1-.17-.4,3.07,3.07,0,0,1-.12-.67v-.19a3.83,3.83,0,0,1,0-.46c0-.11,0-.23,0-.35,0-.55,0-1,0-1.41s0-.59,0-.71l0-.34.07,0,.16-.06.16-.05h.07a1.21,1.21,0,0,1,0,.18l0,.14a6.26,6.26,0,0,1,.1.85l0,.4c0,.3,0,.61,0,.91v.27a4.34,4.34,0,0,0,0,.51,2.62,2.62,0,0,0,.15.74,1.46,1.46,0,0,0,.24.47c0-.13.07-.27.1-.41a3.18,3.18,0,0,1-.06-.43,2.09,2.09,0,0,1,0-.25,1.86,1.86,0,0,1,0-.26.86.86,0,0,1,0-.17c0-.07,0-.15,0-.25s0-.25,0-.45v-.86c0-.15,0-.28,0-.38v-.38a.92.92,0,0,1,0-.19,1.22,1.22,0,0,1,0-.17v0l.07-.05.16-.06.15,0h.08a1.21,1.21,0,0,1,.11.3c.06.45.11.89.13,1.32,0,.13,0,.36,0,.7s0,.58,0,.74v.12a3,3,0,0,0,.1.66,1.84,1.84,0,0,0,.32.66l0,0A.18.18,0,0,1,82.28,141.56Z"/><path class="cls-2" d="M86.05,138.4a1,1,0,0,1,.41.45,1.5,1.5,0,0,1,.14.5v.09a1.61,1.61,0,0,1-.43,1.16,2.67,2.67,0,0,1-.66.52,3.89,3.89,0,0,1-.76.33,3.35,3.35,0,0,1-.53.11h-.11a.5.5,0,0,1-.24,0,.19.19,0,0,1-.13-.18s0-.07.11-.11l.23-.09.15-.05v0c0-.06,0-.12,0-.19s0-.41,0-.62c0-.39,0-.79,0-1.18s0-.81,0-1.22c0-.08,0-.16,0-.25s0-.33,0-.5a2.12,2.12,0,0,1,0-.5s0,0,.07-.05l.15-.07.16,0h.08a1.57,1.57,0,0,1,.16.49,4.6,4.6,0,0,1,.06.52l0,.17c0,.18,0,.36,0,.54l0,.28a1.6,1.6,0,0,1,.5-.13h0A.93.93,0,0,1,86.05,138.4Zm-.31,1.86a1.42,1.42,0,0,0,.12-.75,1.52,1.52,0,0,0-.1-.46.85.85,0,0,0-.34-.41.45.45,0,0,0-.18-.08h0l-.06,0,0,0,0,0v0c0,.07,0,.13,0,.19,0,.41,0,.81,0,1.22,0,.21,0,.41,0,.61V141a.3.3,0,0,1,0,.1A1.83,1.83,0,0,0,85.74,140.26Z"/><path class="cls-2" d="M89.44,140.12h.07l.06,0a0,0,0,0,1,0,0v0a.86.86,0,0,1-.21.29l-.28.23h0a2.85,2.85,0,0,1-.72.41,1.81,1.81,0,0,1-.47.13h-.07a1.09,1.09,0,0,1-.44,0A.84.84,0,0,1,87,141a1.22,1.22,0,0,1-.26-.52.2.2,0,0,1-.11,0,.07.07,0,0,1,0-.06l0,0a.19.19,0,0,1,.09-.09,2.38,2.38,0,0,1,0-.7,4.13,4.13,0,0,1,.22-.65,2.44,2.44,0,0,1,.6-.77,1.55,1.55,0,0,1,.86-.42h0a.59.59,0,0,1,.38.07.38.38,0,0,1,.19.3v0a.78.78,0,0,1-.12.41,2.25,2.25,0,0,1-.24.36,5.15,5.15,0,0,1-.64.76,2.24,2.24,0,0,1-.37.32,1.2,1.2,0,0,0,.24.58c.1.13.2.2.3.19l.08,0a1.67,1.67,0,0,0,.33-.19l0,0,.15-.11a3.48,3.48,0,0,1,.36-.22.62.62,0,0,1,.26-.09Zm-1.39-1.71a2.16,2.16,0,0,0-.31.58,2.49,2.49,0,0,0-.08.32c.08-.1.15-.21.22-.31v0a1.67,1.67,0,0,0,.17-.26.75.75,0,0,0,.09-.29.25.25,0,0,0,0-.08v0a0,0,0,0,0,0,0l0,0s0,0-.06.07Z"/><path class="cls-2" d="M93.58,137.54l0,.11,0,.11a.13.13,0,0,1,0,.06s0,.05,0,.09,0,.11,0,.21,0,.24,0,.41,0,.52.07.91v.12c0,.24,0,.48,0,.71a1.79,1.79,0,0,1-.17.67,2.62,2.62,0,0,1-.86,1,2.12,2.12,0,0,1-.91.37l-.26,0a1.08,1.08,0,0,1-.53-.1l0,0-.17-.08a.23.23,0,0,1-.1-.14h0a.13.13,0,0,1,.06-.14.62.62,0,0,1,.16-.1l.16,0h.1l.3,0,.27,0,.43-.09a.8.8,0,0,0,.44-.33,1.58,1.58,0,0,0,.25-.84c0-.09,0-.19,0-.29a1.31,1.31,0,0,1-.27.2,2.48,2.48,0,0,1-.46.24,1,1,0,0,1-.32.09h-.27a.46.46,0,0,1-.32-.25,1.34,1.34,0,0,1-.15-.49,3,3,0,0,1,0-.52s0-.07,0-.1c0-.23,0-.46,0-.68a.13.13,0,0,1,0-.06,1.84,1.84,0,0,1,0-.33.68.68,0,0,1,.12-.3l.07,0,.18-.08.17-.07.08,0h0a.16.16,0,0,1,0,.11.8.8,0,0,1,0,.22c0,.12,0,.28,0,.49a6.33,6.33,0,0,0,.07.63s0,.14,0,.31a1.55,1.55,0,0,0,.16.52c.07.12.14.18.21.17a.2.2,0,0,0,.11-.07,1.06,1.06,0,0,0,.2-.41c.07-.22.14-.47.2-.74s.1-.51.14-.73.06-.37.07-.44v0a.29.29,0,0,1,.14-.15.57.57,0,0,1,.22-.07h.07S93.56,137.5,93.58,137.54Z"/><path class="cls-2" d="M95.83,137a1.32,1.32,0,0,1,.92.77,1.09,1.09,0,0,1,.08.31,1.77,1.77,0,0,1-.17,1,2.68,2.68,0,0,1-.77,1,1.8,1.8,0,0,1-.78.35l-.33,0c-.18,0-.36-.11-.55-.35a1.36,1.36,0,0,1-.2-.58,1.92,1.92,0,0,1,0-.3,3.13,3.13,0,0,1,.06-.79,3.37,3.37,0,0,1,.37-1,.53.53,0,0,1,.29-.21,1,1,0,0,1,.48-.18l.19,0A1.58,1.58,0,0,1,95.83,137Zm0,2a1.39,1.39,0,0,0,.05-.64,1,1,0,0,0-.28-.57,1.05,1.05,0,0,0-.63-.31,5,5,0,0,0-.11.66,2.5,2.5,0,0,0,0,.67.88.88,0,0,0,0,.16,1.73,1.73,0,0,0,.09.4.67.67,0,0,0,.27.36.07.07,0,0,0,.06,0,.4.4,0,0,0,.18-.12,1.66,1.66,0,0,0,.21-.31A2.39,2.39,0,0,0,95.85,139Z"/><path class="cls-2" d="M99.21,136.46a1.3,1.3,0,0,1,.23.56c0,.15.07.31.1.48s0,.31.07.54,0,.47.07.73a2,2,0,0,1,0,.47.41.41,0,0,1-.18.2,1.48,1.48,0,0,1-.33.17.48.48,0,0,1-.15,0h-.13l0,0v0s0,0,0-.06a.17.17,0,0,1,0-.07,2.06,2.06,0,0,1-.45.38,1.57,1.57,0,0,1-.48.18l-.18,0a.54.54,0,0,1-.37-.15.81.81,0,0,1-.26-.55v0c0-.4-.09-.77-.1-1.11s0-.62,0-.85v-.15s0,0,.06-.08l.15-.08.12,0h.06a.05.05,0,0,1,0,0,.06.06,0,0,1,0,0,12.73,12.73,0,0,1,.31,1.36l0,.08c0,.05,0,.1,0,.16s0,.26.09.42a1,1,0,0,0,.15.4.13.13,0,0,0,.11.07.3.3,0,0,0,.13-.11q.14-.22.3-.57a5.91,5.91,0,0,0,.22-.6c0-.08,0-.15,0-.2a1.27,1.27,0,0,0,0-.2c0-.08,0-.18,0-.31a2.15,2.15,0,0,0,0-.23v-.1a1.82,1.82,0,0,1,0-.57.14.14,0,0,1,.07-.06.53.53,0,0,1,.15-.08l.14-.06h.09Z"/><path class="cls-2" d="M101.69,136.11a.4.4,0,0,1,.19.26,1.09,1.09,0,0,1,0,.44.34.34,0,0,1-.15.17.7.7,0,0,1-.26.1c-.08,0-.14,0-.17,0s0-.11,0-.17a.47.47,0,0,0-.06-.19.05.05,0,0,0,0,0l-.09.06a2,2,0,0,0-.22.35,1139937929893.72,1139937929893.72,0,0,0-.1.22c0,.12,0,.32.08.58s.06.53.08.78a1.07,1.07,0,0,1,0,.47.73.73,0,0,1-.22.17l-.32.14a.71.71,0,0,1-.16.05h-.06s0,0,0,0v-.13a.45.45,0,0,1,0-.12v-.07c0-.45,0-.83,0-1.13s-.05-.54-.07-.73a1.94,1.94,0,0,1,0-.72s0,0,.06-.07l.15-.08.14-.06h.09a.87.87,0,0,1,.18.31,2.56,2.56,0,0,1,.34-.31,1.49,1.49,0,0,1,.41-.22l.08,0A.47.47,0,0,1,101.69,136.11Z"/><path class="cls-2" d="M105.81,135.28a1.73,1.73,0,0,1,.2.48c0,.06,0,.12,0,.19a2.38,2.38,0,0,1,0,.26v.06l0,.17.09.5a22,22,0,0,1,.26,2.53.49.49,0,0,1,0,.12,1.79,1.79,0,0,1,0,.21.25.25,0,0,1,0,.1.35.35,0,0,1-.09.07,1.63,1.63,0,0,1-.25.15l-.3.12-.1,0h-.08a2.08,2.08,0,0,1,0-.35v-.19c0-.53,0-1.05-.09-1.55a1.88,1.88,0,0,1-.52.36,1.35,1.35,0,0,1-.32.11h-.08l-.14,0a.85.85,0,0,1-.56-.17.91.91,0,0,1-.32-.5s0-.07,0-.11a1.85,1.85,0,0,1,0-.62,4,4,0,0,1,.16-.66,2.35,2.35,0,0,1,.3-.64,1.83,1.83,0,0,1,.51-.49,1.8,1.8,0,0,1,.31-.15l.24-.07h.07l.16,0a.42.42,0,0,1,.25.07l.12,0h.07Zm-1,2.88.11,0h0l.09-.09a2.1,2.1,0,0,1,.4-.39.3.3,0,0,1,.13-.07c-.06-.58-.1-1-.13-1.21s0-.21,0-.29a2.53,2.53,0,0,1,0-.28.13.13,0,0,1-.14,0,.38.38,0,0,0-.19-.14h0a.45.45,0,0,0-.2.17,1.66,1.66,0,0,0-.24.5,3.65,3.65,0,0,0-.18.89,1.82,1.82,0,0,0,0,.33v0a1.5,1.5,0,0,0,.08.27A.55.55,0,0,0,104.77,138.16Z"/><path class="cls-2" d="M108.63,134.5a1.34,1.34,0,0,1,.26.54c0,.15.09.31.13.47s.06.31.1.54.08.47.11.72a2.19,2.19,0,0,1,0,.48.42.42,0,0,1-.17.21,2.07,2.07,0,0,1-.32.19l-.14,0a.28.28,0,0,1-.13,0,.07.07,0,0,1,0,0v0s0,0,0-.06v-.06a2.06,2.06,0,0,1-.43.4,1.51,1.51,0,0,1-.47.21l-.18,0A.52.52,0,0,1,107,138a.85.85,0,0,1-.3-.54v0c-.08-.39-.13-.76-.17-1.1s-.05-.62-.07-.84v-.15s0-.06,0-.09l.15-.09.11,0h.06a0,0,0,0,1,0,0s0,0,0,.05c.15.44.28.88.39,1.33l0,.08,0,.17c0,.11.06.25.11.41a1.18,1.18,0,0,0,.17.39s.08.07.12.06.08-.05.12-.12a3.63,3.63,0,0,0,.26-.58,3.7,3.7,0,0,0,.19-.61q0-.12,0-.21a1.48,1.48,0,0,0,0-.2c0-.07,0-.17,0-.3a2.08,2.08,0,0,0,0-.23l0-.1a2.18,2.18,0,0,1,0-.57l.07-.07.14-.09.14-.06h.09Z"/><path class="cls-2" d="M114.14,135.41a1.1,1.1,0,0,1,.25-.12h.08c.07,0,.12,0,.12.05a0,0,0,0,1,0,0,.64.64,0,0,1-.16.29h0a2.42,2.42,0,0,1-.39.4,2,2,0,0,1-.49.34,1.29,1.29,0,0,1-.39.16,1.89,1.89,0,0,1-.44,0,.74.74,0,0,1-.52-.36,4,4,0,0,1-.68.61,2.85,2.85,0,0,1-.8.4l-.07,0a1.19,1.19,0,0,1-.7,0,.91.91,0,0,1-.49-.58h-.11a.07.07,0,0,1,0,0,.11.11,0,0,1,0-.07.31.31,0,0,1,.08-.1,2.65,2.65,0,0,1-.06-.69,2.48,2.48,0,0,1,.79-1.73,1.53,1.53,0,0,1,.62-.35.82.82,0,0,1,.31,0,.44.44,0,0,1,.25.18.36.36,0,0,1,0,.11.61.61,0,0,1,0,.24,1.81,1.81,0,0,1-.1.34c-.06.13-.11.24-.16.33a6.33,6.33,0,0,1-.34.58,4.13,4.13,0,0,1-.46.58h0a1.13,1.13,0,0,0,.28.53.38.38,0,0,0,.35.12l.1,0a.91.91,0,0,0,.3-.21,2.18,2.18,0,0,0,.29-.26c.11-.1.2-.2.28-.28l.11-.12a2.29,2.29,0,0,1,.16-1.43,2.19,2.19,0,0,1,.61-.77,1.2,1.2,0,0,1,.49-.25.94.94,0,0,1,.28,0c.13,0,.23.09.29.28v0a1.5,1.5,0,0,1-.21.9,3.35,3.35,0,0,1-.69,1,1.14,1.14,0,0,0,.24.41c.11.09.19.13.26.11h0a.77.77,0,0,0,.19-.16A3,3,0,0,1,114.14,135.41Zm-3.92,0a4.29,4.29,0,0,0,.33-.76.57.57,0,0,0,0-.25,0,0,0,0,0,0,0h0s-.08.07-.13.17A1.86,1.86,0,0,0,110.22,135.37Zm2.83-1.36a.73.73,0,0,0-.1.22,2,2,0,0,0-.11.59,2.27,2.27,0,0,0,.16-.39A.9.9,0,0,0,113.05,134Z"/><path class="cls-2" d="M117,132.59a1.68,1.68,0,0,1,.3.63l0,.07q.11.36.18.75c0,.23.1.45.16.65a1.93,1.93,0,0,1,.06.2.67.67,0,0,0,.19.3,0,0,0,0,1,0,0s0,.08-.06.13a1.11,1.11,0,0,1-.22.2,1.34,1.34,0,0,1-.31.17l-.06,0a.47.47,0,0,1-.2,0,.45.45,0,0,1-.22-.23.64.64,0,0,1-.06-.18.83.83,0,0,1,0-.15s0,0,0-.06a6.49,6.49,0,0,1-.13-.85c0-.19,0-.38-.08-.57a3.58,3.58,0,0,0-.09-.45l0-.12c-.06-.18-.11-.27-.16-.25a.12.12,0,0,0,0,0,1.22,1.22,0,0,0-.12.32,3.86,3.86,0,0,0-.15.88c0,.26,0,.49,0,.69a2.09,2.09,0,0,1,0,.24,2.62,2.62,0,0,1,0,.28c0,.07,0,.15,0,.22s0,.11-.13.2a1.26,1.26,0,0,1-.34.23l-.1,0a.7.7,0,0,1-.32,0c-.12,0-.23-.16-.33-.38s-.13-.36-.19-.54l0-.14v0a6.08,6.08,0,0,1-.22-1.53s0-.08.09-.13a.83.83,0,0,1,.18-.13l.18-.08h.06a.06.06,0,0,1,.07,0c0,.08,0,.17.08.25.11.37.23.74.35,1.1a4.91,4.91,0,0,1,.12-.72,2.68,2.68,0,0,1,.27-.68,1.41,1.41,0,0,1,.36-.38,1.31,1.31,0,0,1,.39-.2l.22,0C116.73,132.38,116.85,132.45,117,132.59Z"/></g></g></svg>